<?xml version="1.0" encoding="utf-8"?>
<!-- Generator: Adobe Illustrator 21.0.2, SVG Export Plug-In . SVG Version: 6.00 Build 0)  -->
<svg version="1.1" xmlns="http://www.w3.org/2000/svg" xmlns:xlink="http://www.w3.org/1999/xlink" x="0px" y="0px"
	 viewBox="0 0 145.3 145.3" style="enable-background:new 0 0 145.3 145.3;" xml:space="preserve">
<style type="text/css">
	.st0{fill:#3A3B3A;}
	.st1{clip-path:url(#SVGID_2_);}
	.st2{clip-path:url(#SVGID_4_);fill:#D3A82A;}
	.st3{clip-path:url(#SVGID_6_);}
	.st4{clip-path:url(#SVGID_8_);fill:#2D2D2C;}
	.st5{clip-path:url(#SVGID_10_);}
	.st6{clip-path:url(#SVGID_12_);fill:#F9F9FA;}
	.st7{clip-path:url(#SVGID_14_);}
	.st8{clip-path:url(#SVGID_16_);fill:#FFFFFF;}
	.st9{clip-path:url(#SVGID_18_);}
	.st10{clip-path:url(#SVGID_20_);fill:#FFFFFF;}
	.st11{fill:none;stroke:#D3A82A;stroke-width:0.8003;stroke-miterlimit:10;}
	.st12{fill:#D3A82A;}
	.st13{opacity:0.637;}
	.st14{fill:#FAFBFC;}
	.st15{fill:none;}
	.st16{fill:#F9F9FA;}
	.st17{fill:none;stroke:#D3A82A;stroke-width:3;stroke-miterlimit:10;}
	.st18{fill:#FFFFFF;}
	.st19{fill:#E2E2E2;}
	.st20{fill:none;stroke:#D3A82A;stroke-width:4;stroke-miterlimit:10;}
	.st21{fill:none;stroke:#3A3B3A;stroke-width:4;stroke-miterlimit:10;}
	.st22{fill:none;stroke:#D3A82A;stroke-width:3.4857;stroke-miterlimit:10;}
	.st23{fill:#3A3B3A;stroke:#D3A82A;stroke-width:3.4857;stroke-miterlimit:10;}
	.st24{fill:#3A3B3A;stroke:#D3A82A;stroke-width:4;stroke-miterlimit:10;}
	.st25{fill:#D3A82A;stroke:#D3A82A;stroke-width:4;stroke-miterlimit:10;}
	.st26{fill:#D3A82A;stroke:#F1F2F2;stroke-width:4;stroke-miterlimit:10;}
	.st27{fill:#D3A82A;stroke:#D3A82A;stroke-width:3.4857;stroke-miterlimit:10;}
	.st28{fill:#D3A82A;stroke:#D3A82A;stroke-width:3.4098;stroke-miterlimit:10;}
	.st29{fill:none;stroke:#D3A82A;stroke-width:0;stroke-linecap:round;stroke-linejoin:round;}
	.st30{fill-rule:evenodd;clip-rule:evenodd;fill:none;}
	.st31{clip-path:url(#SVGID_24_);}
	.st32{clip-path:url(#SVGID_26_);fill:#D3A82A;}
	.st33{clip-path:url(#SVGID_28_);}
	.st34{clip-path:url(#SVGID_30_);fill:#2D2D2C;}
	.st35{clip-path:url(#SVGID_32_);}
	.st36{clip-path:url(#SVGID_34_);fill:#F9F9FA;}
</style>
<g id="Layer_2">
</g>
<g id="Layer_1">
	<g>
		<polygon class="st12" points="16.8,53.3 16.8,56.2 16.8,91.9 47.9,91.9 69.3,115.6 69.3,26.5 47.9,53.3 		"/>
		<path class="st12" d="M92.8,66.4C92.2,53.4,81.5,45,81,44.7l-3.1,4c0.1,0.1,9.3,7.3,9.9,18c0.4,7-3,13.9-10.1,20.8l3.5,3.6
			C89.4,83.2,93.3,74.9,92.8,66.4z"/>
		<path class="st12" d="M111.4,65.8c-1-17.9-15.7-29.5-16.3-30l-3.1,4c0.1,0.1,13.5,10.7,14.4,26.2c0.5,10.2-4.4,20.3-14.6,30.1
			l3.5,3.6C106.6,89,112,77.5,111.4,65.8z"/>
		<path class="st12" d="M132.8,65.2c-1.2-23-20.2-38-21.1-38.6l-3.1,4c0.2,0.1,18,14.2,19.1,34.9c0.7,13.5-5.8,27-19.3,40l3.5,3.6
			C126.6,95.1,133.6,80.3,132.8,65.2z"/>
	</g>
</g>
</svg>
